<svg xmlns="http://www.w3.org/2000/svg" width="40.531" height="49.248" viewBox="0 0 40.531 49.248">
  <g id="Grupo_23" data-name="Grupo 23" transform="translate(-1748.713 -540.819)">
    <path id="Trazado_56" data-name="Trazado 56" d="M1787.341,564.6l.009,0a18.743,18.743,0,1,0-37.114-4.66c-.423,7.148,3.933,12.707,8.48,17.735,1.953,2.16,3.948,4.283,5.95,6.4q1.255,1.326,2.517,2.646c.384.4,1.715,1.79,1.776,1.852,3.614-3.752,7.219-7.523,10.7-11.4,1.2-1.342,2.36-2.715,3.454-4.149A22.136,22.136,0,0,0,1787.341,564.6Z" fill="none" stroke="#b9b9b9" stroke-linecap="round" stroke-linejoin="round" stroke-width="3"/>
    <circle id="Elipse_4" data-name="Elipse 4" cx="11.121" cy="11.121" r="11.121" transform="translate(1757.848 549.656)" fill="none" stroke="#b9b9b9" stroke-linecap="round" stroke-linejoin="round" stroke-width="3"/>
  </g>
</svg>
