<svg xmlns="http://www.w3.org/2000/svg" xmlns:xlink="http://www.w3.org/1999/xlink" width="386.916" height="153" viewBox="0 0 386.916 153">
  <defs>
    <filter id="Trazado_53" x="31" y="34" width="91" height="91" filterUnits="userSpaceOnUse">
      <feOffset dy="3" input="SourceAlpha"/>
      <feGaussianBlur stdDeviation="3" result="blur"/>
      <feFlood flood-opacity="0.161"/>
      <feComposite operator="in" in2="blur"/>
      <feComposite in="SourceGraphic"/>
    </filter>
  </defs>
  <g id="Grupo_26" data-name="Grupo 26" transform="translate(-127 -220)">
    <path id="Trazado_57" data-name="Trazado 57" d="M26-6.028a14.888,14.888,0,0,1-5.94-1.21A15.773,15.773,0,0,1,15.092-10.6a15.773,15.773,0,0,1-3.366-4.972,14.888,14.888,0,0,1-1.21-5.94,14.888,14.888,0,0,1,1.21-5.94,16.3,16.3,0,0,1,3.366-5.016,15.773,15.773,0,0,1,4.972-3.366A14.888,14.888,0,0,1,26-37.048q4.708,0,9.768,3.784a2.416,2.416,0,0,0,1.408.7,1.419,1.419,0,0,0,1.144-.528l-.044.044,2.42-3.784a1.687,1.687,0,0,0,.176-.418,1.868,1.868,0,0,0,.088-.55,1.281,1.281,0,0,0-.352-.814,5.944,5.944,0,0,0-1.1-.946,26.108,26.108,0,0,0-6.688-3.476,21.426,21.426,0,0,0-6.82-1.1,22.212,22.212,0,0,0-8.734,1.738,22.54,22.54,0,0,0-7.238,4.862A22.414,22.414,0,0,0,5.17-30.25a22.422,22.422,0,0,0-1.738,8.734A22.372,22.372,0,0,0,5.17-12.76a21.979,21.979,0,0,0,4.862,7.216A21.979,21.979,0,0,0,17.248-.682,22.372,22.372,0,0,0,26,1.056,23.777,23.777,0,0,0,40-3.872a5.952,5.952,0,0,0,.924-.748,1.421,1.421,0,0,0,.528-1.056,1.11,1.11,0,0,0-.264-.748l-2.508-3.652a1.04,1.04,0,0,0-.968-.528,2.365,2.365,0,0,0-1.584.66,16.783,16.783,0,0,1-4.8,2.86A14.46,14.46,0,0,1,26-6.028ZM49.9.44a14.51,14.51,0,0,0,10.3-4q3.96-3.7,5.808-10.6l4.18-16.1a7.77,7.77,0,0,1,1.144-2.354,10.408,10.408,0,0,1,1.848-2,7.661,7.661,0,0,1,2.354-1.342,7.883,7.883,0,0,1,2.662-.462,6.854,6.854,0,0,1,1.892.264,1.4,1.4,0,0,0,.4.088q.924,0,1.408-1.276l1.276-4.752a2.622,2.622,0,0,0,.044-.572,1.126,1.126,0,0,0-1.012-1.188,16.454,16.454,0,0,0-3.344-.22,18.178,18.178,0,0,0-5.28.77A16.678,16.678,0,0,0,68.9-41.1a15.437,15.437,0,0,0-3.74,3.7,13.987,13.987,0,0,0-2.2,4.84L58.036-13.508A8.574,8.574,0,0,1,55-9.2a7.869,7.869,0,0,1-4.972,1.848,8.034,8.034,0,0,1-1.936-.264,1.335,1.335,0,0,0-.4-.044,1.373,1.373,0,0,0-.9.308,1.322,1.322,0,0,0-.462.836l-1.32,4.8a1.335,1.335,0,0,0-.044.4,1.468,1.468,0,0,0,.286.88,1.363,1.363,0,0,0,.77.528A9.528,9.528,0,0,0,47.74.374Q48.62.44,49.9.44ZM98.78-41.316a1.842,1.842,0,0,0-.572-1.386,2.068,2.068,0,0,0-1.5-.55H93.1a1.921,1.921,0,0,0-1.386.528,1.861,1.861,0,0,0-.55,1.408v39.38Q91.168,0,93.192,0h3.652A1.711,1.711,0,0,0,98.78-1.936ZM131.824-6.028a14.888,14.888,0,0,1-5.94-1.21,15.772,15.772,0,0,1-4.972-3.366,15.773,15.773,0,0,1-3.366-4.972,14.889,14.889,0,0,1-1.21-5.94,14.889,14.889,0,0,1,1.21-5.94,16.3,16.3,0,0,1,3.366-5.016,15.773,15.773,0,0,1,4.972-3.366,14.888,14.888,0,0,1,5.94-1.21q4.708,0,9.768,3.784a2.416,2.416,0,0,0,1.408.7,1.419,1.419,0,0,0,1.144-.528l-.044.044,2.42-3.784a1.687,1.687,0,0,0,.176-.418,1.868,1.868,0,0,0,.088-.55,1.281,1.281,0,0,0-.352-.814,5.944,5.944,0,0,0-1.1-.946,26.108,26.108,0,0,0-6.688-3.476,21.426,21.426,0,0,0-6.82-1.1,22.212,22.212,0,0,0-8.734,1.738,22.54,22.54,0,0,0-7.238,4.862,22.414,22.414,0,0,0-4.862,7.282,22.422,22.422,0,0,0-1.738,8.734,22.372,22.372,0,0,0,1.738,8.756,21.979,21.979,0,0,0,4.862,7.216,21.979,21.979,0,0,0,7.216,4.862,22.372,22.372,0,0,0,8.756,1.738,23.777,23.777,0,0,0,13.992-4.928,5.952,5.952,0,0,0,.924-.748,1.421,1.421,0,0,0,.528-1.056A1.11,1.11,0,0,0,147-6.424L144.5-10.076a1.04,1.04,0,0,0-.968-.528,2.365,2.365,0,0,0-1.584.66,16.783,16.783,0,0,1-4.8,2.86A14.46,14.46,0,0,1,131.824-6.028ZM182.6-1.408A2.011,2.011,0,0,0,184.58,0h4.708q1.628,0,1.628-1.144l-.088-.616-.088-.484.044.088-16.324-39.6a.38.38,0,0,1-.132-.264,2.223,2.223,0,0,0-.572-.836,1.977,1.977,0,0,0-1.276-.308h-2.948a1.977,1.977,0,0,0-1.276.308,2.223,2.223,0,0,0-.572.836l-.132.264-16.324,39.6-.088.264a3.491,3.491,0,0,0-.044.748Q151.1,0,152.724,0h4.752a2.011,2.011,0,0,0,1.98-1.408L160.6-4.4h20.812Zm-4.18-10.736H163.592l7.436-19.14Z" transform="translate(323 314)" fill="#fff"/>
    <g id="Grupo_25" data-name="Grupo 25">
      <circle id="Elipse_3" data-name="Elipse 3" cx="76.5" cy="76.5" r="76.5" transform="translate(127 220)" fill="#fff" opacity="0.13"/>
      <circle id="Elipse_2" data-name="Elipse 2" cx="50.5" cy="50.5" r="50.5" transform="translate(153 246)" fill="#fff" opacity="0.13"/>
      <g id="Grupo_16" data-name="Grupo 16" transform="translate(-171 -15)">
        <g transform="matrix(1, 0, 0, 1, 298, 235)" filter="url(#Trazado_53)">
          <path id="Trazado_53-2" data-name="Trazado 53" d="M36.5,0A36.5,36.5,0,1,1,0,36.5,36.5,36.5,0,0,1,36.5,0Z" transform="translate(40 40)" fill="#00cea4"/>
        </g>
        <path id="Polígono_1" data-name="Polígono 1" d="M15.26,3.071a2,2,0,0,1,3.48,0L32.308,27.014A2,2,0,0,1,30.568,30H3.432a2,2,0,0,1-1.74-2.986Z" transform="translate(394 295) rotate(90)" fill="#fff"/>
      </g>
    </g>
  </g>
</svg>
