<svg xmlns="http://www.w3.org/2000/svg" width="1916.887" height="154.68" viewBox="0 0 1916.887 154.68">
  <g id="Grupo_15" data-name="Grupo 15" transform="translate(-54 -600.96)">
    <g id="Grupo_12" data-name="Grupo 12" transform="translate(54 600.959)">
      <g id="Grupo_11" data-name="Grupo 11">
        <g id="Grupo_10" data-name="Grupo 10">
          <path id="Trazado_9" data-name="Trazado 9" d="M1871.678,3727.089h10.6v-22.961a5.3,5.3,0,0,0-5.3-5.3h0a5.3,5.3,0,0,0-5.3,5.3Z" transform="translate(-1871.678 -3572.409)" fill="#131313"/>
          <path id="Trazado_10" data-name="Trazado 10" d="M1883.369,3730.861h10.6v-50.477a5.3,5.3,0,0,0-5.3-5.3h0a5.3,5.3,0,0,0-5.3,5.3Z" transform="translate(-1869.82 -3576.181)" fill="#131313"/>
          <path id="Trazado_11" data-name="Trazado 11" d="M1895.059,3733.92h10.6v-72.787a5.3,5.3,0,0,0-5.3-5.3h0a5.3,5.3,0,0,0-5.3,5.3Z" transform="translate(-1867.963 -3579.241)" fill="#131313"/>
          <path id="Trazado_12" data-name="Trazado 12" d="M1906.749,3732.39h10.6v-61.632a5.3,5.3,0,0,0-5.3-5.3h0a5.3,5.3,0,0,0-5.3,5.3Z" transform="translate(-1866.106 -3577.712)" fill="#131313"/>
          <path id="Trazado_13" data-name="Trazado 13" d="M1918.438,3730.453h10.6v-47.5a5.3,5.3,0,0,0-5.3-5.3h0a5.3,5.3,0,0,0-5.3,5.3Z" transform="translate(-1864.248 -3575.774)" fill="#131313"/>
          <path id="Trazado_14" data-name="Trazado 14" d="M1930.127,3728.415h10.6v-32.628a5.3,5.3,0,0,0-5.3-5.3h0a5.3,5.3,0,0,0-5.3,5.3Z" transform="translate(-1862.391 -3573.736)" fill="#131313"/>
          <path id="Trazado_15" data-name="Trazado 15" d="M1941.818,3735.959h10.6V3648.3a5.3,5.3,0,0,0-5.3-5.3h0a5.3,5.3,0,0,0-5.3,5.3Z" transform="translate(-1860.534 -3581.28)" fill="#131313"/>
          <path id="Trazado_16" data-name="Trazado 16" d="M1953.508,3738.406h10.6V3632.9a5.3,5.3,0,0,0-5.3-5.3h0a5.3,5.3,0,0,0-5.3,5.3Z" transform="translate(-1858.676 -3583.727)" fill="#131313"/>
          <path id="Trazado_17" data-name="Trazado 17" d="M1965.2,3742.637h10.6V3606.27a5.3,5.3,0,0,0-5.3-5.3h0a5.3,5.3,0,0,0-5.3,5.3Z" transform="translate(-1856.819 -3587.958)" fill="#131313"/>
          <path id="Trazado_18" data-name="Trazado 18" d="M1976.889,3744.421h10.6V3595.04a5.3,5.3,0,0,0-5.3-5.3h0a5.3,5.3,0,0,0-5.3,5.3Z" transform="translate(-1854.961 -3589.742)" fill="#131313"/>
          <path id="Trazado_19" data-name="Trazado 19" d="M1988.579,3742.637h10.6V3606.27a5.3,5.3,0,0,0-5.3-5.3h0a5.3,5.3,0,0,0-5.3,5.3Z" transform="translate(-1853.104 -3587.958)" fill="#131313"/>
          <path id="Trazado_20" data-name="Trazado 20" d="M2000.268,3738.406h10.6V3632.9a5.3,5.3,0,0,0-5.3-5.3h0a5.3,5.3,0,0,0-5.3,5.3Z" transform="translate(-1851.247 -3583.727)" fill="#131313"/>
          <path id="Trazado_21" data-name="Trazado 21" d="M2011.959,3735.832h10.6V3649.1a5.3,5.3,0,0,0-5.3-5.3h0a5.3,5.3,0,0,0-5.3,5.3Z" transform="translate(-1849.389 -3581.153)" fill="#131313"/>
          <path id="Trazado_22" data-name="Trazado 22" d="M2023.648,3730.453h10.6v-47.5a5.3,5.3,0,0,0-5.3-5.3h0a5.3,5.3,0,0,0-5.3,5.3Z" transform="translate(-1847.532 -3575.774)" fill="#131313"/>
          <path id="Trazado_23" data-name="Trazado 23" d="M2035.338,3727.089h10.6v-22.961a5.3,5.3,0,0,0-5.3-5.3h0a5.3,5.3,0,0,0-5.3,5.3Z" transform="translate(-1845.675 -3572.409)" fill="#131313"/>
          <path id="Trazado_24" data-name="Trazado 24" d="M2047.028,3724.948h10.6V3717.6a5.3,5.3,0,0,0-5.3-5.3h0a5.3,5.3,0,0,0-5.3,5.3Z" transform="translate(-1843.817 -3570.268)" fill="#131313"/>
          <path id="Trazado_25" data-name="Trazado 25" d="M2058.718,3732.39h10.6v-61.632a5.3,5.3,0,0,0-5.3-5.3h0a5.3,5.3,0,0,0-5.3,5.3Z" transform="translate(-1841.96 -3577.712)" fill="#131313"/>
          <path id="Trazado_26" data-name="Trazado 26" d="M2070.408,3734.914h10.6v-80.037a5.3,5.3,0,0,0-5.3-5.3h0a5.3,5.3,0,0,0-5.3,5.3Z" transform="translate(-1840.102 -3580.235)" fill="#131313"/>
          <path id="Trazado_27" data-name="Trazado 27" d="M2082.1,3733.92h10.6v-72.787a5.3,5.3,0,0,0-5.3-5.3h0a5.3,5.3,0,0,0-5.3,5.3Z" transform="translate(-1838.245 -3579.241)" fill="#131313"/>
          <path id="Trazado_28" data-name="Trazado 28" d="M2093.789,3732.39h10.6v-61.632a5.3,5.3,0,0,0-5.3-5.3h0a5.3,5.3,0,0,0-5.3,5.3Z" transform="translate(-1836.387 -3577.712)" fill="#131313"/>
          <path id="Trazado_29" data-name="Trazado 29" d="M2105.478,3730.861h10.6v-50.477a5.3,5.3,0,0,0-5.3-5.3h0a5.3,5.3,0,0,0-5.3,5.3Z" transform="translate(-1834.53 -3576.181)" fill="#131313"/>
          <path id="Trazado_30" data-name="Trazado 30" d="M2117.168,3726.2h10.6v-16.454a5.3,5.3,0,0,0-5.3-5.3h0a5.3,5.3,0,0,0-5.3,5.3Z" transform="translate(-1832.673 -3571.518)" fill="#131313"/>
          <path id="Trazado_31" data-name="Trazado 31" d="M2128.858,3727.344h10.6v-24.82a5.3,5.3,0,0,0-5.3-5.3h0a5.3,5.3,0,0,0-5.3,5.3Z" transform="translate(-1830.815 -3572.664)" fill="#131313"/>
          <path id="Trazado_32" data-name="Trazado 32" d="M2140.547,3732.773h10.6v-64.42a5.3,5.3,0,0,0-5.3-5.3h0a5.3,5.3,0,0,0-5.3,5.3Z" transform="translate(-1828.958 -3578.094)" fill="#131313"/>
          <path id="Trazado_33" data-name="Trazado 33" d="M2152.238,3730.453h10.6v-47.5a5.3,5.3,0,0,0-5.3-5.3h0a5.3,5.3,0,0,0-5.3,5.3Z" transform="translate(-1827.1 -3575.774)" fill="#131313"/>
          <path id="Trazado_34" data-name="Trazado 34" d="M2163.928,3729.128h10.6V3691.3a5.3,5.3,0,0,0-5.3-5.3h0a5.3,5.3,0,0,0-5.3,5.3Z" transform="translate(-1825.243 -3574.449)" fill="#131313"/>
          <path id="Trazado_35" data-name="Trazado 35" d="M2175.618,3727.089h10.6v-22.961a5.3,5.3,0,0,0-5.3-5.3h0a5.3,5.3,0,0,0-5.3,5.3Z" transform="translate(-1823.385 -3572.409)" fill="#131313"/>
          <path id="Trazado_36" data-name="Trazado 36" d="M2187.308,3726.2h10.6v-16.454a5.3,5.3,0,0,0-5.3-5.3h0a5.3,5.3,0,0,0-5.3,5.3Z" transform="translate(-1821.528 -3571.518)" fill="#131313"/>
          <path id="Trazado_37" data-name="Trazado 37" d="M2199,3724.948h10.594V3717.6a5.3,5.3,0,0,0-5.3-5.3h0a5.3,5.3,0,0,0-5.3,5.3Z" transform="translate(-1819.671 -3570.268)" fill="#131313"/>
          <path id="Trazado_38" data-name="Trazado 38" d="M2210.688,3723.826h10.6a4.463,4.463,0,0,0-4.463-4.463h-1.671a4.463,4.463,0,0,0-4.463,4.463Z" transform="translate(-1817.813 -3569.146)" fill="#131313"/>
          <path id="Trazado_39" data-name="Trazado 39" d="M2222.377,3729.128h10.6V3691.3a5.3,5.3,0,0,0-5.3-5.3h0a5.3,5.3,0,0,0-5.3,5.3Z" transform="translate(-1815.956 -3574.449)" fill="#131313"/>
          <path id="Trazado_40" data-name="Trazado 40" d="M2234.068,3732.39h10.6v-61.632a5.3,5.3,0,0,0-5.3-5.3h0a5.3,5.3,0,0,0-5.3,5.3Z" transform="translate(-1814.099 -3577.712)" fill="#131313"/>
          <path id="Trazado_41" data-name="Trazado 41" d="M2245.758,3733.92h10.6v-72.787a5.3,5.3,0,0,0-5.3-5.3h0a5.3,5.3,0,0,0-5.3,5.3Z" transform="translate(-1812.242 -3579.241)" fill="#131313"/>
          <path id="Trazado_42" data-name="Trazado 42" d="M2257.448,3735.832h10.6V3649.1a5.3,5.3,0,0,0-5.3-5.3h0a5.3,5.3,0,0,0-5.3,5.3Z" transform="translate(-1810.384 -3581.153)" fill="#131313"/>
          <path id="Trazado_43" data-name="Trazado 43" d="M2269.138,3734.914h10.6v-80.037a5.3,5.3,0,0,0-5.3-5.3h0a5.3,5.3,0,0,0-5.3,5.3Z" transform="translate(-1808.526 -3580.235)" fill="#131313"/>
          <path id="Trazado_44" data-name="Trazado 44" d="M2280.828,3732.39h10.6v-61.632a5.3,5.3,0,0,0-5.3-5.3h0a5.3,5.3,0,0,0-5.3,5.3Z" transform="translate(-1806.669 -3577.712)" fill="#131313"/>
          <path id="Trazado_45" data-name="Trazado 45" d="M2292.518,3730.453h10.6v-47.5a5.3,5.3,0,0,0-5.3-5.3h0a5.3,5.3,0,0,0-5.3,5.3Z" transform="translate(-1804.811 -3575.774)" fill="#131313"/>
          <path id="Trazado_46" data-name="Trazado 46" d="M2304.208,3728.21h10.6v-31.142a5.3,5.3,0,0,0-5.3-5.3h0a5.3,5.3,0,0,0-5.3,5.3Z" transform="translate(-1802.954 -3573.531)" fill="#131313"/>
          <path id="Trazado_47" data-name="Trazado 47" d="M2315.9,3725.763h10.6v-13.294a5.3,5.3,0,0,0-5.3-5.3h0a5.3,5.3,0,0,0-5.3,5.3Z" transform="translate(-1801.097 -3571.084)" fill="#131313"/>
          <path id="Trazado_48" data-name="Trazado 48" d="M2327.587,3724.948h10.6V3717.6a5.3,5.3,0,0,0-5.3-5.3h0a5.3,5.3,0,0,0-5.3,5.3Z" transform="translate(-1799.239 -3570.268)" fill="#131313"/>
          <path id="Trazado_49" data-name="Trazado 49" d="M2339.278,3723.826h10.6a4.462,4.462,0,0,0-4.461-4.463h-1.672a4.463,4.463,0,0,0-4.462,4.463Z" transform="translate(-1797.382 -3569.146)" fill="#131313"/>
          <path id="Trazado_50" data-name="Trazado 50" d="M2350.967,3729.536h10.6v-40.809a5.3,5.3,0,0,0-5.3-5.3h0a5.3,5.3,0,0,0-5.3,5.3Z" transform="translate(-1795.525 -3574.857)" fill="#131313"/>
          <path id="Trazado_51" data-name="Trazado 51" d="M2362.657,3727.089h10.6v-22.961a5.3,5.3,0,0,0-5.3-5.3h0a5.3,5.3,0,0,0-5.3,5.3Z" transform="translate(-1793.667 -3572.409)" fill="#131313"/>
          <path id="Trazado_52" data-name="Trazado 52" d="M2374.348,3725.763h10.6v-13.294a5.3,5.3,0,0,0-5.3-5.3h0a5.3,5.3,0,0,0-5.3,5.3Z" transform="translate(-1791.81 -3571.084)" fill="#131313"/>
        </g>
      </g>
    </g>
    <g id="Grupo_13" data-name="Grupo 13" transform="translate(715.876 600.959)">
      <g id="Grupo_11-2" data-name="Grupo 11">
        <g id="Grupo_10-2" data-name="Grupo 10">
          <path id="Trazado_9-2" data-name="Trazado 9" d="M1871.678,3727.089h10.6v-22.961a5.3,5.3,0,0,0-5.3-5.3h0a5.3,5.3,0,0,0-5.3,5.3Z" transform="translate(-1871.678 -3572.409)" fill="#131313"/>
          <path id="Trazado_10-2" data-name="Trazado 10" d="M1883.369,3730.861h10.6v-50.477a5.3,5.3,0,0,0-5.3-5.3h0a5.3,5.3,0,0,0-5.3,5.3Z" transform="translate(-1869.82 -3576.181)" fill="#131313"/>
          <path id="Trazado_11-2" data-name="Trazado 11" d="M1895.059,3733.92h10.6v-72.787a5.3,5.3,0,0,0-5.3-5.3h0a5.3,5.3,0,0,0-5.3,5.3Z" transform="translate(-1867.963 -3579.241)" fill="#131313"/>
          <path id="Trazado_12-2" data-name="Trazado 12" d="M1906.749,3732.39h10.6v-61.632a5.3,5.3,0,0,0-5.3-5.3h0a5.3,5.3,0,0,0-5.3,5.3Z" transform="translate(-1866.106 -3577.712)" fill="#131313"/>
          <path id="Trazado_13-2" data-name="Trazado 13" d="M1918.438,3730.453h10.6v-47.5a5.3,5.3,0,0,0-5.3-5.3h0a5.3,5.3,0,0,0-5.3,5.3Z" transform="translate(-1864.248 -3575.774)" fill="#131313"/>
          <path id="Trazado_14-2" data-name="Trazado 14" d="M1930.127,3728.415h10.6v-32.628a5.3,5.3,0,0,0-5.3-5.3h0a5.3,5.3,0,0,0-5.3,5.3Z" transform="translate(-1862.391 -3573.736)" fill="#131313"/>
          <path id="Trazado_15-2" data-name="Trazado 15" d="M1941.818,3735.959h10.6V3648.3a5.3,5.3,0,0,0-5.3-5.3h0a5.3,5.3,0,0,0-5.3,5.3Z" transform="translate(-1860.534 -3581.28)" fill="#131313"/>
          <path id="Trazado_16-2" data-name="Trazado 16" d="M1953.508,3738.406h10.6V3632.9a5.3,5.3,0,0,0-5.3-5.3h0a5.3,5.3,0,0,0-5.3,5.3Z" transform="translate(-1858.676 -3583.727)" fill="#131313"/>
          <path id="Trazado_17-2" data-name="Trazado 17" d="M1965.2,3742.637h10.6V3606.27a5.3,5.3,0,0,0-5.3-5.3h0a5.3,5.3,0,0,0-5.3,5.3Z" transform="translate(-1856.819 -3587.958)" fill="#131313"/>
          <path id="Trazado_18-2" data-name="Trazado 18" d="M1976.889,3744.421h10.6V3595.04a5.3,5.3,0,0,0-5.3-5.3h0a5.3,5.3,0,0,0-5.3,5.3Z" transform="translate(-1854.961 -3589.742)" fill="#131313"/>
          <path id="Trazado_19-2" data-name="Trazado 19" d="M1988.579,3742.637h10.6V3606.27a5.3,5.3,0,0,0-5.3-5.3h0a5.3,5.3,0,0,0-5.3,5.3Z" transform="translate(-1853.104 -3587.958)" fill="#131313"/>
          <path id="Trazado_20-2" data-name="Trazado 20" d="M2000.268,3738.406h10.6V3632.9a5.3,5.3,0,0,0-5.3-5.3h0a5.3,5.3,0,0,0-5.3,5.3Z" transform="translate(-1851.247 -3583.727)" fill="#131313"/>
          <path id="Trazado_21-2" data-name="Trazado 21" d="M2011.959,3735.832h10.6V3649.1a5.3,5.3,0,0,0-5.3-5.3h0a5.3,5.3,0,0,0-5.3,5.3Z" transform="translate(-1849.389 -3581.153)" fill="#131313"/>
          <path id="Trazado_22-2" data-name="Trazado 22" d="M2023.648,3730.453h10.6v-47.5a5.3,5.3,0,0,0-5.3-5.3h0a5.3,5.3,0,0,0-5.3,5.3Z" transform="translate(-1847.532 -3575.774)" fill="#131313"/>
          <path id="Trazado_23-2" data-name="Trazado 23" d="M2035.338,3727.089h10.6v-22.961a5.3,5.3,0,0,0-5.3-5.3h0a5.3,5.3,0,0,0-5.3,5.3Z" transform="translate(-1845.675 -3572.409)" fill="#131313"/>
          <path id="Trazado_24-2" data-name="Trazado 24" d="M2047.028,3724.948h10.6V3717.6a5.3,5.3,0,0,0-5.3-5.3h0a5.3,5.3,0,0,0-5.3,5.3Z" transform="translate(-1843.817 -3570.268)" fill="#131313"/>
          <path id="Trazado_25-2" data-name="Trazado 25" d="M2058.718,3732.39h10.6v-61.632a5.3,5.3,0,0,0-5.3-5.3h0a5.3,5.3,0,0,0-5.3,5.3Z" transform="translate(-1841.96 -3577.712)" fill="#131313"/>
          <path id="Trazado_26-2" data-name="Trazado 26" d="M2070.408,3734.914h10.6v-80.037a5.3,5.3,0,0,0-5.3-5.3h0a5.3,5.3,0,0,0-5.3,5.3Z" transform="translate(-1840.102 -3580.235)" fill="#131313"/>
          <path id="Trazado_27-2" data-name="Trazado 27" d="M2082.1,3733.92h10.6v-72.787a5.3,5.3,0,0,0-5.3-5.3h0a5.3,5.3,0,0,0-5.3,5.3Z" transform="translate(-1838.245 -3579.241)" fill="#131313"/>
          <path id="Trazado_28-2" data-name="Trazado 28" d="M2093.789,3732.39h10.6v-61.632a5.3,5.3,0,0,0-5.3-5.3h0a5.3,5.3,0,0,0-5.3,5.3Z" transform="translate(-1836.387 -3577.712)" fill="#131313"/>
          <path id="Trazado_29-2" data-name="Trazado 29" d="M2105.478,3730.861h10.6v-50.477a5.3,5.3,0,0,0-5.3-5.3h0a5.3,5.3,0,0,0-5.3,5.3Z" transform="translate(-1834.53 -3576.181)" fill="#131313"/>
          <path id="Trazado_30-2" data-name="Trazado 30" d="M2117.168,3726.2h10.6v-16.454a5.3,5.3,0,0,0-5.3-5.3h0a5.3,5.3,0,0,0-5.3,5.3Z" transform="translate(-1832.673 -3571.518)" fill="#131313"/>
          <path id="Trazado_31-2" data-name="Trazado 31" d="M2128.858,3727.344h10.6v-24.82a5.3,5.3,0,0,0-5.3-5.3h0a5.3,5.3,0,0,0-5.3,5.3Z" transform="translate(-1830.815 -3572.664)" fill="#131313"/>
          <path id="Trazado_32-2" data-name="Trazado 32" d="M2140.547,3732.773h10.6v-64.42a5.3,5.3,0,0,0-5.3-5.3h0a5.3,5.3,0,0,0-5.3,5.3Z" transform="translate(-1828.958 -3578.094)" fill="#131313"/>
          <path id="Trazado_33-2" data-name="Trazado 33" d="M2152.238,3730.453h10.6v-47.5a5.3,5.3,0,0,0-5.3-5.3h0a5.3,5.3,0,0,0-5.3,5.3Z" transform="translate(-1827.1 -3575.774)" fill="#131313"/>
          <path id="Trazado_34-2" data-name="Trazado 34" d="M2163.928,3729.128h10.6V3691.3a5.3,5.3,0,0,0-5.3-5.3h0a5.3,5.3,0,0,0-5.3,5.3Z" transform="translate(-1825.243 -3574.449)" fill="#131313"/>
          <path id="Trazado_35-2" data-name="Trazado 35" d="M2175.618,3727.089h10.6v-22.961a5.3,5.3,0,0,0-5.3-5.3h0a5.3,5.3,0,0,0-5.3,5.3Z" transform="translate(-1823.385 -3572.409)" fill="#131313"/>
          <path id="Trazado_36-2" data-name="Trazado 36" d="M2187.308,3726.2h10.6v-16.454a5.3,5.3,0,0,0-5.3-5.3h0a5.3,5.3,0,0,0-5.3,5.3Z" transform="translate(-1821.528 -3571.518)" fill="#131313"/>
          <path id="Trazado_37-2" data-name="Trazado 37" d="M2199,3724.948h10.594V3717.6a5.3,5.3,0,0,0-5.3-5.3h0a5.3,5.3,0,0,0-5.3,5.3Z" transform="translate(-1819.671 -3570.268)" fill="#131313"/>
          <path id="Trazado_38-2" data-name="Trazado 38" d="M2210.688,3723.826h10.6a4.463,4.463,0,0,0-4.463-4.463h-1.671a4.463,4.463,0,0,0-4.463,4.463Z" transform="translate(-1817.813 -3569.146)" fill="#131313"/>
          <path id="Trazado_39-2" data-name="Trazado 39" d="M2222.377,3729.128h10.6V3691.3a5.3,5.3,0,0,0-5.3-5.3h0a5.3,5.3,0,0,0-5.3,5.3Z" transform="translate(-1815.956 -3574.449)" fill="#131313"/>
          <path id="Trazado_40-2" data-name="Trazado 40" d="M2234.068,3732.39h10.6v-61.632a5.3,5.3,0,0,0-5.3-5.3h0a5.3,5.3,0,0,0-5.3,5.3Z" transform="translate(-1814.099 -3577.712)" fill="#131313"/>
          <path id="Trazado_41-2" data-name="Trazado 41" d="M2245.758,3733.92h10.6v-72.787a5.3,5.3,0,0,0-5.3-5.3h0a5.3,5.3,0,0,0-5.3,5.3Z" transform="translate(-1812.242 -3579.241)" fill="#131313"/>
          <path id="Trazado_42-2" data-name="Trazado 42" d="M2257.448,3735.832h10.6V3649.1a5.3,5.3,0,0,0-5.3-5.3h0a5.3,5.3,0,0,0-5.3,5.3Z" transform="translate(-1810.384 -3581.153)" fill="#131313"/>
          <path id="Trazado_43-2" data-name="Trazado 43" d="M2269.138,3734.914h10.6v-80.037a5.3,5.3,0,0,0-5.3-5.3h0a5.3,5.3,0,0,0-5.3,5.3Z" transform="translate(-1808.526 -3580.235)" fill="#131313"/>
          <path id="Trazado_44-2" data-name="Trazado 44" d="M2280.828,3732.39h10.6v-61.632a5.3,5.3,0,0,0-5.3-5.3h0a5.3,5.3,0,0,0-5.3,5.3Z" transform="translate(-1806.669 -3577.712)" fill="#131313"/>
          <path id="Trazado_45-2" data-name="Trazado 45" d="M2292.518,3730.453h10.6v-47.5a5.3,5.3,0,0,0-5.3-5.3h0a5.3,5.3,0,0,0-5.3,5.3Z" transform="translate(-1804.811 -3575.774)" fill="#131313"/>
          <path id="Trazado_46-2" data-name="Trazado 46" d="M2304.208,3728.21h10.6v-31.142a5.3,5.3,0,0,0-5.3-5.3h0a5.3,5.3,0,0,0-5.3,5.3Z" transform="translate(-1802.954 -3573.531)" fill="#131313"/>
          <path id="Trazado_47-2" data-name="Trazado 47" d="M2315.9,3725.763h10.6v-13.294a5.3,5.3,0,0,0-5.3-5.3h0a5.3,5.3,0,0,0-5.3,5.3Z" transform="translate(-1801.097 -3571.084)" fill="#131313"/>
          <path id="Trazado_48-2" data-name="Trazado 48" d="M2327.587,3724.948h10.6V3717.6a5.3,5.3,0,0,0-5.3-5.3h0a5.3,5.3,0,0,0-5.3,5.3Z" transform="translate(-1799.239 -3570.268)" fill="#131313"/>
          <path id="Trazado_49-2" data-name="Trazado 49" d="M2339.278,3723.826h10.6a4.462,4.462,0,0,0-4.461-4.463h-1.672a4.463,4.463,0,0,0-4.462,4.463Z" transform="translate(-1797.382 -3569.146)" fill="#131313"/>
          <path id="Trazado_50-2" data-name="Trazado 50" d="M2350.967,3729.536h10.6v-40.809a5.3,5.3,0,0,0-5.3-5.3h0a5.3,5.3,0,0,0-5.3,5.3Z" transform="translate(-1795.525 -3574.857)" fill="#131313"/>
          <path id="Trazado_51-2" data-name="Trazado 51" d="M2362.657,3727.089h10.6v-22.961a5.3,5.3,0,0,0-5.3-5.3h0a5.3,5.3,0,0,0-5.3,5.3Z" transform="translate(-1793.667 -3572.409)" fill="#131313"/>
          <path id="Trazado_52-2" data-name="Trazado 52" d="M2374.348,3725.763h10.6v-13.294a5.3,5.3,0,0,0-5.3-5.3h0a5.3,5.3,0,0,0-5.3,5.3Z" transform="translate(-1791.81 -3571.084)" fill="#131313"/>
        </g>
      </g>
    </g>
    <g id="Grupo_14" data-name="Grupo 14" transform="translate(1377.752 600.959)">
      <g id="Grupo_11-3" data-name="Grupo 11">
        <g id="Grupo_10-3" data-name="Grupo 10">
          <path id="Trazado_9-3" data-name="Trazado 9" d="M1882.276,3727.089h-10.6v-22.961a5.3,5.3,0,0,1,5.3-5.3h0a5.3,5.3,0,0,1,5.3,5.3Z" transform="translate(-1289.141 -3572.409)" fill="#131313"/>
          <path id="Trazado_10-3" data-name="Trazado 10" d="M1893.965,3730.861h-10.6v-50.477a5.3,5.3,0,0,1,5.3-5.3h0a5.3,5.3,0,0,1,5.3,5.3Z" transform="translate(-1314.378 -3576.181)" fill="#131313"/>
          <path id="Trazado_11-3" data-name="Trazado 11" d="M1905.656,3733.92h-10.6v-72.787a5.3,5.3,0,0,1,5.3-5.3h0a5.3,5.3,0,0,1,5.3,5.3Z" transform="translate(-1339.617 -3579.241)" fill="#131313"/>
          <path id="Trazado_12-3" data-name="Trazado 12" d="M1917.346,3732.39h-10.6v-61.632a5.3,5.3,0,0,1,5.3-5.3h0a5.3,5.3,0,0,1,5.3,5.3Z" transform="translate(-1364.854 -3577.712)" fill="#131313"/>
          <path id="Trazado_13-3" data-name="Trazado 13" d="M1929.036,3730.453h-10.6v-47.5a5.3,5.3,0,0,1,5.3-5.3h0a5.3,5.3,0,0,1,5.3,5.3Z" transform="translate(-1390.09 -3575.774)" fill="#131313"/>
          <path id="Trazado_14-3" data-name="Trazado 14" d="M1940.726,3728.415h-10.6v-32.628a5.3,5.3,0,0,1,5.3-5.3h0a5.3,5.3,0,0,1,5.3,5.3Z" transform="translate(-1415.327 -3573.736)" fill="#131313"/>
          <path id="Trazado_15-3" data-name="Trazado 15" d="M1952.415,3735.959h-10.6V3648.3a5.3,5.3,0,0,1,5.3-5.3h0a5.3,5.3,0,0,1,5.3,5.3Z" transform="translate(-1440.564 -3581.28)" fill="#131313"/>
          <path id="Trazado_16-3" data-name="Trazado 16" d="M1964.106,3738.406h-10.6V3632.9a5.3,5.3,0,0,1,5.3-5.3h0a5.3,5.3,0,0,1,5.3,5.3Z" transform="translate(-1465.803 -3583.727)" fill="#131313"/>
          <path id="Trazado_17-3" data-name="Trazado 17" d="M1975.8,3742.637h-10.6V3606.27a5.3,5.3,0,0,1,5.3-5.3h0a5.3,5.3,0,0,1,5.3,5.3Z" transform="translate(-1491.039 -3587.958)" fill="#131313"/>
          <path id="Trazado_18-3" data-name="Trazado 18" d="M1987.485,3744.421h-10.6V3595.04a5.3,5.3,0,0,1,5.3-5.3h0a5.3,5.3,0,0,1,5.3,5.3Z" transform="translate(-1516.277 -3589.742)" fill="#131313"/>
          <path id="Trazado_19-3" data-name="Trazado 19" d="M1999.175,3742.637h-10.6V3606.27a5.3,5.3,0,0,1,5.3-5.3h0a5.3,5.3,0,0,1,5.3,5.3Z" transform="translate(-1541.515 -3587.958)" fill="#131313"/>
          <path id="Trazado_20-3" data-name="Trazado 20" d="M2010.866,3738.406h-10.6V3632.9a5.3,5.3,0,0,1,5.3-5.3h0a5.3,5.3,0,0,1,5.3,5.3Z" transform="translate(-1566.752 -3583.727)" fill="#131313"/>
          <path id="Trazado_21-3" data-name="Trazado 21" d="M2022.555,3735.832h-10.6V3649.1a5.3,5.3,0,0,1,5.3-5.3h0a5.3,5.3,0,0,1,5.3,5.3Z" transform="translate(-1591.99 -3581.153)" fill="#131313"/>
          <path id="Trazado_22-3" data-name="Trazado 22" d="M2034.246,3730.453h-10.6v-47.5a5.3,5.3,0,0,1,5.3-5.3h0a5.3,5.3,0,0,1,5.3,5.3Z" transform="translate(-1617.227 -3575.774)" fill="#131313"/>
          <path id="Trazado_23-3" data-name="Trazado 23" d="M2045.936,3727.089h-10.6v-22.961a5.3,5.3,0,0,1,5.3-5.3h0a5.3,5.3,0,0,1,5.3,5.3Z" transform="translate(-1642.465 -3572.409)" fill="#131313"/>
          <path id="Trazado_24-3" data-name="Trazado 24" d="M2057.625,3724.948h-10.6V3717.6a5.3,5.3,0,0,1,5.3-5.3h0a5.3,5.3,0,0,1,5.3,5.3Z" transform="translate(-1667.701 -3570.268)" fill="#131313"/>
          <path id="Trazado_25-3" data-name="Trazado 25" d="M2069.315,3732.39h-10.6v-61.632a5.3,5.3,0,0,1,5.3-5.3h0a5.3,5.3,0,0,1,5.3,5.3Z" transform="translate(-1692.938 -3577.712)" fill="#131313"/>
          <path id="Trazado_26-3" data-name="Trazado 26" d="M2081.005,3734.914h-10.6v-80.037a5.3,5.3,0,0,1,5.3-5.3h0a5.3,5.3,0,0,1,5.3,5.3Z" transform="translate(-1718.176 -3580.235)" fill="#131313"/>
          <path id="Trazado_27-3" data-name="Trazado 27" d="M2092.7,3733.92h-10.6v-72.787a5.3,5.3,0,0,1,5.3-5.3h0a5.3,5.3,0,0,1,5.3,5.3Z" transform="translate(-1743.413 -3579.241)" fill="#131313"/>
          <path id="Trazado_28-3" data-name="Trazado 28" d="M2104.385,3732.39h-10.6v-61.632a5.3,5.3,0,0,1,5.3-5.3h0a5.3,5.3,0,0,1,5.3,5.3Z" transform="translate(-1768.651 -3577.712)" fill="#131313"/>
          <path id="Trazado_29-3" data-name="Trazado 29" d="M2116.076,3730.861h-10.6v-50.477a5.3,5.3,0,0,1,5.3-5.3h0a5.3,5.3,0,0,1,5.3,5.3Z" transform="translate(-1793.889 -3576.181)" fill="#131313"/>
          <path id="Trazado_30-3" data-name="Trazado 30" d="M2127.765,3726.2h-10.6v-16.454a5.3,5.3,0,0,1,5.3-5.3h0a5.3,5.3,0,0,1,5.3,5.3Z" transform="translate(-1819.125 -3571.518)" fill="#131313"/>
          <path id="Trazado_31-3" data-name="Trazado 31" d="M2139.455,3727.344h-10.6v-24.82a5.3,5.3,0,0,1,5.3-5.3h0a5.3,5.3,0,0,1,5.3,5.3Z" transform="translate(-1844.363 -3572.664)" fill="#131313"/>
          <path id="Trazado_32-3" data-name="Trazado 32" d="M2151.145,3732.773h-10.6v-64.42a5.3,5.3,0,0,1,5.3-5.3h0a5.3,5.3,0,0,1,5.3,5.3Z" transform="translate(-1869.599 -3578.094)" fill="#131313"/>
          <path id="Trazado_33-3" data-name="Trazado 33" d="M2162.835,3730.453h-10.6v-47.5a5.3,5.3,0,0,1,5.3-5.3h0a5.3,5.3,0,0,1,5.3,5.3Z" transform="translate(-1894.838 -3575.774)" fill="#131313"/>
          <path id="Trazado_34-3" data-name="Trazado 34" d="M2174.525,3729.128h-10.6V3691.3a5.3,5.3,0,0,1,5.3-5.3h0a5.3,5.3,0,0,1,5.3,5.3Z" transform="translate(-1920.075 -3574.449)" fill="#131313"/>
          <path id="Trazado_35-3" data-name="Trazado 35" d="M2186.215,3727.089h-10.6v-22.961a5.3,5.3,0,0,1,5.3-5.3h0a5.3,5.3,0,0,1,5.3,5.3Z" transform="translate(-1945.312 -3572.409)" fill="#131313"/>
          <path id="Trazado_36-3" data-name="Trazado 36" d="M2197.905,3726.2h-10.6v-16.454a5.3,5.3,0,0,1,5.3-5.3h0a5.3,5.3,0,0,1,5.3,5.3Z" transform="translate(-1970.55 -3571.518)" fill="#131313"/>
          <path id="Trazado_37-3" data-name="Trazado 37" d="M2209.594,3724.948H2199V3717.6a5.3,5.3,0,0,1,5.3-5.3h0a5.3,5.3,0,0,1,5.3,5.3Z" transform="translate(-1995.787 -3570.268)" fill="#131313"/>
          <path id="Trazado_38-3" data-name="Trazado 38" d="M2221.285,3723.826h-10.6a4.463,4.463,0,0,1,4.463-4.463h1.671a4.463,4.463,0,0,1,4.463,4.463Z" transform="translate(-2021.025 -3569.146)" fill="#131313"/>
          <path id="Trazado_39-3" data-name="Trazado 39" d="M2232.975,3729.128h-10.6V3691.3a5.3,5.3,0,0,1,5.3-5.3h0a5.3,5.3,0,0,1,5.3,5.3Z" transform="translate(-2046.26 -3574.449)" fill="#131313"/>
          <path id="Trazado_40-3" data-name="Trazado 40" d="M2244.664,3732.39h-10.6v-61.632a5.3,5.3,0,0,1,5.3-5.3h0a5.3,5.3,0,0,1,5.3,5.3Z" transform="translate(-2071.498 -3577.712)" fill="#131313"/>
          <path id="Trazado_41-3" data-name="Trazado 41" d="M2256.355,3733.92h-10.6v-72.787a5.3,5.3,0,0,1,5.3-5.3h0a5.3,5.3,0,0,1,5.3,5.3Z" transform="translate(-2096.736 -3579.241)" fill="#131313"/>
          <path id="Trazado_42-3" data-name="Trazado 42" d="M2268.045,3735.832h-10.6V3649.1a5.3,5.3,0,0,1,5.3-5.3h0a5.3,5.3,0,0,1,5.3,5.3Z" transform="translate(-2121.974 -3581.153)" fill="#131313"/>
          <path id="Trazado_43-3" data-name="Trazado 43" d="M2279.735,3734.914h-10.6v-80.037a5.3,5.3,0,0,1,5.3-5.3h0a5.3,5.3,0,0,1,5.3,5.3Z" transform="translate(-2147.211 -3580.235)" fill="#131313"/>
          <path id="Trazado_44-3" data-name="Trazado 44" d="M2291.425,3732.39h-10.6v-61.632a5.3,5.3,0,0,1,5.3-5.3h0a5.3,5.3,0,0,1,5.3,5.3Z" transform="translate(-2172.448 -3577.712)" fill="#131313"/>
          <path id="Trazado_45-3" data-name="Trazado 45" d="M2303.115,3730.453h-10.6v-47.5a5.3,5.3,0,0,1,5.3-5.3h0a5.3,5.3,0,0,1,5.3,5.3Z" transform="translate(-2197.686 -3575.774)" fill="#131313"/>
          <path id="Trazado_46-3" data-name="Trazado 46" d="M2314.8,3728.21h-10.6v-31.142a5.3,5.3,0,0,1,5.3-5.3h0a5.3,5.3,0,0,1,5.3,5.3Z" transform="translate(-2222.923 -3573.531)" fill="#131313"/>
          <path id="Trazado_47-3" data-name="Trazado 47" d="M2326.5,3725.763h-10.6v-13.294a5.3,5.3,0,0,1,5.3-5.3h0a5.3,5.3,0,0,1,5.3,5.3Z" transform="translate(-2248.161 -3571.084)" fill="#131313"/>
          <path id="Trazado_48-3" data-name="Trazado 48" d="M2338.185,3724.948h-10.6V3717.6a5.3,5.3,0,0,1,5.3-5.3h0a5.3,5.3,0,0,1,5.3,5.3Z" transform="translate(-2273.397 -3570.268)" fill="#131313"/>
          <path id="Trazado_49-3" data-name="Trazado 49" d="M2349.874,3723.826h-10.6a4.463,4.463,0,0,1,4.462-4.463h1.672a4.463,4.463,0,0,1,4.462,4.463Z" transform="translate(-2298.635 -3569.146)" fill="#131313"/>
          <path id="Trazado_50-3" data-name="Trazado 50" d="M2361.566,3729.536h-10.6v-40.809a5.3,5.3,0,0,1,5.3-5.3h0a5.3,5.3,0,0,1,5.3,5.3Z" transform="translate(-2323.873 -3574.857)" fill="#131313"/>
          <path id="Trazado_51-3" data-name="Trazado 51" d="M2373.256,3727.089h-10.6v-22.961a5.3,5.3,0,0,1,5.3-5.3h0a5.3,5.3,0,0,1,5.3,5.3Z" transform="translate(-2349.11 -3572.409)" fill="#131313"/>
          <path id="Trazado_52-3" data-name="Trazado 52" d="M2384.945,3725.763h-10.6v-13.294a5.3,5.3,0,0,1,5.3-5.3h0a5.3,5.3,0,0,1,5.3,5.3Z" transform="translate(-2374.348 -3571.084)" fill="#131313"/>
        </g>
      </g>
    </g>
  </g>
</svg>
