<svg xmlns="http://www.w3.org/2000/svg" xmlns:xlink="http://www.w3.org/1999/xlink" width="489.889" height="474.926" viewBox="0 0 489.889 474.926">
  <defs>
    <linearGradient id="linear-gradient" x1="0.677" y1="1.185" x2="0.274" y2="-0.261" gradientUnits="objectBoundingBox">
      <stop offset="0" stop-color="#28b7ff"/>
      <stop offset="0.157" stop-color="#65d78b"/>
      <stop offset="0.322" stop-color="#b5e352"/>
      <stop offset="0.435" stop-color="#e9eb2f"/>
      <stop offset="0.481" stop-color="#e9e52e"/>
      <stop offset="0.54" stop-color="#ebd52b"/>
      <stop offset="0.605" stop-color="#efbc27"/>
      <stop offset="0.674" stop-color="#f49821"/>
      <stop offset="0.708" stop-color="#f7841e"/>
      <stop offset="0.861" stop-color="#f64742"/>
      <stop offset="1" stop-color="#f61561"/>
    </linearGradient>
    <linearGradient id="linear-gradient-2" x1="0.707" y1="1.292" x2="0.24" y2="-0.381" xlink:href="#linear-gradient"/>
    <linearGradient id="linear-gradient-3" x1="0.748" y1="1.439" x2="0.194" y2="-0.547" xlink:href="#linear-gradient"/>
    <linearGradient id="linear-gradient-4" x1="0.808" y1="1.653" x2="0.127" y2="-0.788" xlink:href="#linear-gradient"/>
    <linearGradient id="linear-gradient-5" x1="0.904" y1="1.994" x2="0.019" y2="-1.172" xlink:href="#linear-gradient"/>
    <linearGradient id="linear-gradient-6" x1="1.081" y1="2.624" x2="-0.179" y2="-1.882" xlink:href="#linear-gradient"/>
    <linearGradient id="linear-gradient-7" x1="1.519" y1="4.174" x2="-0.67" y2="-3.628" xlink:href="#linear-gradient"/>
    <linearGradient id="linear-gradient-8" x1="4.262" y1="13.564" x2="-3.723" y2="-14.164" xlink:href="#linear-gradient"/>
  </defs>
  <g id="Grupo_9" data-name="Grupo 9" transform="translate(-1302.196 -1986.357)">
    <g id="Grupo_1" data-name="Grupo 1" transform="translate(1302.196 1986.357)">
      <path id="Trazado_1" data-name="Trazado 1" d="M1573.333,2450.417c-16.866-10.523-28.139-28.537-47.753-31.375-26.321-3.805-47,23.011-72.9,29.553-27.977,7.072-57.434-.556-87.556-22.67-27.2-19.969-39.288-48.435-34.04-80.158,8.95-54.114,65.9-102.891,26.663-155.369-16.725-22.37-46.278-36.183-53.653-66.767-7.4-30.656,7.263-73.225,35.641-103.519,40.264-42.983,79.875-32.627,80.731-32.736,2.267.4,55.915,10.463,89.365,67.953,46.212,79.422,107.322-16,191.632-28.266,8.419-1.224,18.167-1.891,26.608,2.456,16.648,8.571,18.668,30.559,15.341,46.785-5.06,24.658-20.115,45.689-22.327,70.075-2.681,29.6,24.311,40.148,45.653,56.881,33.894,26.579,34.665,60.83-2.988,82.992-12.685,7.467-26.858,12.412-38.408,20.728-49.583,35.707-20.519,127.511-90.366,150.715A74.757,74.757,0,0,1,1573.333,2450.417Zm-46.86-37.539c14.468,2.093,24.657,11.116,34.51,19.841,4.971,4.405,10.112,8.957,15.648,12.413a68.382,68.382,0,0,0,56.385,6.651c65.952-21.911,36.256-112.1,88.691-149.858,12.18-8.773,26.409-13.7,38.889-21.041,33.8-19.891,32.795-48.81,2.3-72.723-21.3-16.7-51.065-28.661-48.012-62.345,2.316-25.565,17.542-46.947,22.428-70.765,3.119-15.2.589-33.466-12.09-39.995-6.878-3.539-15.416-2.91-22.862-1.83-44.109,6.418-77.23,34.269-117.791,52.28-34.43,15.289-60.636,6.441-80.12-27.045-31.973-54.954-82.789-64.548-85.057-64.949h0c-62.814-10.859-122.2,74.941-109.242,128.656,6.842,28.366,35.313,41.392,52.589,64.5,41.828,55.944-16.823,107.622-25.508,160.117-4.844,29.288,6.37,55.611,31.582,74.119,28.551,20.962,56.257,28.243,82.343,21.654,9.619-2.431,18.568-8.007,28.039-13.912C1494.234,2419.277,1508.883,2410.333,1526.473,2412.878Z" transform="translate(-1302.196 -1986.357)" fill="url(#linear-gradient)"/>
    </g>
    <g id="Grupo_2" data-name="Grupo 2" transform="translate(1335.512 2018.676)">
      <path id="Trazado_2" data-name="Trazado 2" d="M1596.173,2422.31c-42.238.005-49-32.467-74.843-36.211-22.591-3.274-40.461,19.65-62.792,25.2-24.171,6.021-49.6-.618-75.592-19.723-23.486-17.263-33.978-41.856-29.546-69.251,7.521-46.561,56.185-88.716,22.669-133.824-14.354-19.374-39.648-31.346-45.935-57.825-11.754-49.733,42.027-127.85,100.771-117.935l-.005.039c9.024.766,51.411,13.783,77.444,58.157v0c39.925,67.9,92.245-13.641,165.123-23.894,7.279-1.022,15.712-1.556,23.026,2.23,14.412,7.462,16.235,26.5,13.417,40.538-4.227,21.061-17.134,39.576-18.973,60.411-2.249,25.369,20.842,34.531,39.122,49.016,29.014,22.976,29.913,52.742-2.71,72.086-10.83,6.438-23.092,10.8-33.034,18-42.6,30.843-18.083,109.858-78.44,129.878A62.723,62.723,0,0,1,1596.173,2422.31Zm-74.014-41.936c18.933,2.744,29.286,18.978,43.362,27.7a59.158,59.158,0,0,0,48.536,5.636c56.737-18.822,31.667-96.349,76.868-129.073,10.6-7.677,22.583-11.815,33.472-18.287,29.155-17.29,27.857-42.157,2.07-62.579-18.287-14.49-43.877-24.913-41.293-54.061,1.946-22.048,14.956-40.576,19.064-61.04,2.615-13.021.41-28.662-10.4-34.261-5.872-3.04-13.183-2.535-19.562-1.64-37.926,5.336-66.48,29.066-101.495,44.439-48.76,21.456-65.859-20.07-69.422-23.344-16.993-28.962-43.739-48.572-73.415-55.418-53.877-9.092-105.162,64.421-94.18,110.9,5.794,24.4,30.121,35.689,44.954,55.713,35.94,48.375-14.3,92.986-21.6,138.192-4.068,25.145,5.612,47.754,27.26,63.668,24.538,18.038,48.349,24.353,70.77,18.769,8.265-2.054,15.973-6.811,24.134-11.846C1494.219,2385.854,1506.926,2378.163,1522.159,2380.374Z" transform="translate(-1328.507 -2011.881)" fill="url(#linear-gradient-2)"/>
    </g>
    <g id="Grupo_3" data-name="Grupo 3" transform="translate(1368.866 2051.017)">
      <path id="Trazado_3" data-name="Trazado 3" d="M1551.615,2375.565c-12.282-7.535-20.5-20.377-34.544-22.416-18.814-2.738-33.941,16.292-52.688,20.848-20.363,4.964-41.769-.678-63.626-16.773-19.771-14.558-28.667-35.277-25.05-58.344,6.107-39.14,46.517-74.475,18.674-112.278-11.95-16.339-33.031-26.545-38.219-48.887-9.676-42.138,35.682-107.675,85.184-99.613l0,.013c4.881.323,16.108,4.5,23.7,8.468a105.764,105.764,0,0,1,41.8,39.954c33.594,56.306,77.272-11.3,138.62-19.523,6.144-.82,13.256-1.224,19.444,2,12.172,6.351,13.8,22.44,11.49,34.288-3.476,17.858-14.126,33.168-15.62,50.744-1.818,21.159,17.4,28.938,32.593,41.159,24.405,19.586,24.885,44.808-2.429,61.177-9.067,5.461-19.365,9.215-27.662,15.27-35.812,26.121-15.5,92.155-66.513,109.042A55.441,55.441,0,0,1,1551.615,2375.565Zm-33.778-27.7c16,2.325,24.7,15.866,36.566,23.147a49.964,49.964,0,0,0,40.687,4.62c47.564-15.745,27.039-80.568,65.043-108.285,8.9-6.492,18.969-10.058,28.059-15.536,23.944-14.349,23.512-35.038,1.836-52.436-15.258-12.273-36.684-21.168-34.572-45.776,1.59-18.65,12.348-34.077,15.7-51.31,2.112-10.838.234-23.864-8.715-28.535-4.867-2.537-10.955-2.154-16.264-1.445-31.71,4.25-55.8,23.894-85.2,36.6-25.117,10.908-44.325,4.489-58.718-19.639l0,0c-21.88-36.862-56.271-44.865-60.914-45.77l-.03.015c-.437.116-27.1-7.33-54.952,22.371-19.494,20.784-29.77,49.829-25,70.635,4.741,20.4,24.963,30.031,37.322,46.93,30.05,40.8-11.785,78.342-17.7,116.264-3.293,21,4.853,39.9,22.94,53.218,20.524,15.111,40.44,20.456,59.2,15.886,6.915-1.68,13.384-5.617,20.233-9.787C1494.4,2352.3,1505.011,2346.006,1517.837,2347.864Z" transform="translate(-1354.849 -2037.423)" fill="url(#linear-gradient-3)"/>
    </g>
    <g id="Grupo_4" data-name="Grupo 4" transform="translate(1402.209 2083.352)">
      <path id="Trazado_4" data-name="Trazado 4" d="M1540.759,2338.138c-9.979-6.032-16.693-16.3-27.947-17.94-15.183-2.2-27.306,12.913-42.587,16.5-16.323,3.851-34.184-.928-51.658-13.827-16.056-11.853-23.354-28.7-20.553-47.433,4.7-31.75,36.756-60.174,14.672-90.747-9.583-13.264-26.447-21.733-30.5-39.949-7.63-34.322,29.189-87.534,69.591-81.281l-.005.039c3.554.142,11.909,2.744,19.483,6.63a85.7,85.7,0,0,1,34.084,32c27.174,44.8,62.422-8.971,112.127-15.142,5.005-.621,10.8-.889,15.854,1.781,9.93,5.238,11.357,18.375,9.564,28.033-2.655,14.314-11.134,26.982-12.266,41.081-1.39,16.97,13.331,22.837,26.066,33.3,19.487,15.956,20.128,36.633-2.146,50.259-3.081,1.884-6.317,3.528-9.446,5.116-18.171,9.227-24.763,13.935-33.618,47.795-5.162,19.739-10.5,40.147-33.819,47.844A45.778,45.778,0,0,1,1540.759,2338.138Zm-27.241-22.782c13.041,1.9,20.143,12.767,29.766,18.59a40.762,40.762,0,0,0,32.843,3.6c38.4-12.671,22.406-64.78,53.217-87.5,12.877-9.5,35.795-14.531,37.005-32.172.523-7.607-4.01-15.744-12.764-22.908-12.256-10.072-29.484-17.426-27.841-37.485,1.212-15.084,9.76-27.723,12.333-41.58,1.49-8.024.542-18.812-7.033-22.809-3.861-2.039-8.724-1.777-12.971-1.253-48,5.96-86.969,62.176-116.912,12.824h0c-18.082-29.8-45.708-35.667-49.3-36.292l-.08.038c-.351.1-21.973-5.739-44.491,18.306-15.7,16.754-24.052,40.178-20.323,56.959,3.648,16.4,19.792,24.45,29.687,38.147,24.052,33.3-9.266,63.72-13.8,94.333-2.52,16.86,4.093,32.049,18.62,42.771,16.513,12.193,32.54,16.566,47.627,13,5.561-1.3,10.792-4.422,16.327-7.723C1494.34,2318.9,1503.025,2313.823,1513.518,2315.356Z" transform="translate(-1381.181 -2062.959)" fill="url(#linear-gradient-4)"/>
    </g>
    <g id="Grupo_5" data-name="Grupo 5" transform="translate(1435.547 2115.69)">
      <path id="Trazado_5" data-name="Trazado 5" d="M1529.9,2300.713c-7.711-4.523-12.862-12.219-21.35-13.464-11.473-1.667-20.757,9.556-32.495,12.152-12.567,2.812-26.287-.954-39.679-10.882-12.337-9.142-18.04-22.109-16.058-36.512,3.277-24.263,27.055-45.946,10.672-69.224-7.2-10.226-19.839-16.927-22.774-31.013-5.612-26.927,22.992-67.3,53.984-62.947,3.035.015,9.665,2.061,15.285,4.844a65.434,65.434,0,0,1,26.354,24.054h0c20.812,33.242,47.351-6.616,85.647-10.76,3.863-.41,8.337-.547,12.261,1.561,7.68,4.123,8.91,14.3,7.633,21.766-1.885,11.019-8.137,20.7-8.914,31.423-.961,12.783,10.131,17.449,19.549,25.461,15.4,13.021,14.53,29.011-1.868,39.331-17.181,10.811-23.812,7.469-32.932,40.387-4.2,15.172-8.548,30.861-26.665,36.811A35.529,35.529,0,0,1,1529.9,2300.713Zm-20.705-17.866c10.059,1.474,15.618,9.724,22.955,14.028a31.439,31.439,0,0,0,25.01,2.6c15.853-5.206,19.7-19.079,23.764-33.77,7.482-27.008,13.359-31.431,27.931-39.1,2.313-1.218,4.707-2.477,6.918-3.869,14.215-8.947,14.079-21.417,1.359-32.172-9.193-7.828-22.275-13.672-21.108-29.183.848-11.666,7.153-21.234,8.967-31.847,1.028-6.008.244-14.09-5.352-17.1-2.859-1.537-6.5-1.4-9.682-1.056-19.33,2.093-34.376,13.465-52.6,20.923-15.877,6.5-28.077,2.5-37.3-12.227h0c-13.269-21.2-33.871-26.536-37.636-26.841l-.175.083c-.3.086-16.746-4.209-33.968,14.183-11.92,12.727-18.383,30.556-15.714,43.355,2.6,12.469,14.579,18.739,22.055,29.361,18.114,25.736-6.751,49.067-9.9,72.387-1.75,12.722,3.329,24.205,14.3,32.334,12.5,9.268,24.632,12.672,36.064,10.114,4.21-.931,8.2-3.231,12.426-5.665C1494.456,2285.4,1501.106,2281.66,1509.2,2282.847Z" transform="translate(-1407.511 -2088.498)" fill="url(#linear-gradient-5)"/>
    </g>
    <g id="Grupo_6" data-name="Grupo 6" transform="translate(1468.898 2148.011)">
      <path id="Trazado_6" data-name="Trazado 6" d="M1519.064,2263.3c-5.414-3.017-9.053-8.147-14.77-8.994-7.724-1.158-14.231,6.2-22.416,7.805-8.808,1.758-18.378-.987-27.69-7.942-8.59-6.415-12.7-15.5-11.564-25.571,1.892-16.808,17.375-31.739,6.663-47.735-4.818-7.2-13.227-12.124-15.044-22.08-3.444-18.87,16.286-47.145,38.382-44.6v0c7.463-.141,21.452,6.7,29.7,19.108,14.425,21.7,32.553-4.292,59.2-6.36,2.72-.2,5.868-.2,8.658,1.345,5.407,3,6.487,9.965,5.7,15.48a57.247,57.247,0,0,1-2.748,10.161c-4.855,14.352-3.971,17.774,6.27,25.955,5.915,4.726,11.919,10.269,11.3,18.464-.614,8.213-7.578,12.615-13.923,16.184-9.2,5.162-12.505,7.578-17.816,24.906-3.25,10.607-6.611,21.575-19.524,25.775A26.036,26.036,0,0,1,1519.064,2263.3Zm-14.183-12.956c7.071,1.047,11.055,6.628,16.133,9.458a22.287,22.287,0,0,0,17.19,1.6c20.051-6.526,13.214-33.256,29.543-45.91,3.861-2.995,8-4.745,11.8-7.27,9.407-6.241,9.361-14.622,1.117-22.074-5.932-5.371-15.016-9.961-14.356-20.85.49-8.1,4.562-14.888,5.6-22.1.575-4-.043-9.39-3.677-11.408-1.863-1.034-4.281-1.012-6.406-.854-25.7,1.994-46.076,29.81-62.841,4.585h0c-9.521-14.323-23.626-17.348-26.019-17.392l-.229.11c-.285.084-11.45-2.757-23.453,10.064-8.149,8.7-12.714,20.943-11.1,29.768,1.535,8.418,9.492,13.188,14.433,20.571,8.133,12.146,3.482,23.467-1.017,34.414-4.186,10.188-11.188,25.837,4.988,37.913,8.5,6.348,16.743,8.774,24.514,7.222,2.863-.56,5.617-2.044,8.53-3.613C1494.608,2251.888,1499.224,2249.5,1504.881,2250.344Zm-32.092-132.218Z" transform="translate(-1433.85 -2114.024)" fill="url(#linear-gradient-6)"/>
    </g>
    <g id="Grupo_7" data-name="Grupo 7" transform="translate(1502.215 2180.216)">
      <path id="Trazado_7" data-name="Trazado 7" d="M1508.278,2225.935c-3.057-1.481-5.267-4.1-8.242-4.555-4.1-.615-7.767,2.852-12.389,3.468-5.048.679-10.464-1.057-15.65-5.013a16.933,16.933,0,0,1-7.064-14.566c.462-9.364,7.753-17.591,2.629-26.354-2.441-4.167-6.616-7.38-7.293-13.154-1.326-11.267,9.927-26.643,22.444-26.2,2.982-.6,11.823,1.294,18.055,9.277,3.128,4.008,6.781,5.1,11.842,3.534,5.576-1.725,19.737-8.1,26.037-4.288,2.634,1.591,4.029,4.994,3.734,9.1a33.9,33.9,0,0,1-1.128,5.945c-1.959,7.734-1.555,9.328,3.433,14.073,3.332,3.17,6.173,6.476,5.764,11.232-.427,4.956-4.178,7.7-7.8,10.086-4.793,3.155-6.421,4.438-9.89,13.469-2.325,6.047-4.726,12.3-12.429,14.744A16.725,16.725,0,0,1,1508.278,2225.935Zm-7.7-8.072c4.049.617,6.455,3.51,9.259,4.868a13.08,13.08,0,0,0,9.422.611c6.07-1.927,7.976-6.886,10.182-12.627,3.772-9.813,5.882-11.624,11.257-15.165,2.758-1.82,5.9-3.858,6.208-7.419.3-3.529-2.389-6.178-4.67-8.347-6.256-5.952-6.588-8.984-4.429-17.524.741-2.932,2.378-9.092-1-11.131a6.276,6.276,0,0,0-3.179-.633c-14.289-.041-25.608,13.413-35.662.532h0c-5.713-7.317-13.316-8.142-14.414-8.019l-.291.14-.451-.022c-10.385-.5-20.086,13.005-19,22.22.543,4.6,4.245,7.349,6.833,11.774,8.7,14.882-11.426,28.5,3.52,39.885,4.484,3.42,8.871,4.872,13.022,4.315a17.825,17.825,0,0,0,4.635-1.58C1494.7,2218.466,1497.382,2217.375,1500.573,2217.864Z" transform="translate(-1460.162 -2139.458)" fill="url(#linear-gradient-7)"/>
    </g>
    <g id="Grupo_8" data-name="Grupo 8" transform="translate(1534.744 2211.432)">
      <path id="Trazado_8" data-name="Trazado 8" d="M1498.237,2188.881a12.385,12.385,0,1,1,12.385-12.385A12.4,12.4,0,0,1,1498.237,2188.881Zm0-21.655a9.269,9.269,0,1,0,9.27,9.27A9.28,9.28,0,0,0,1498.237,2167.226Z" transform="translate(-1485.852 -2164.111)" fill="url(#linear-gradient-8)"/>
    </g>
  </g>
</svg>
