<svg xmlns="http://www.w3.org/2000/svg" width="38.411" height="33.91" viewBox="0 0 38.411 33.91">
  <path id="Trazado_54" data-name="Trazado 54" d="M19.206,63.91a1.2,1.2,0,0,1-.79-.3c-1.657-1.449-3.252-2.808-4.659-4.007C5.472,52.546,0,47.883,0,41.067,0,34.758,4.386,30,10.2,30a9.094,9.094,0,0,1,5.68,1.963,12.937,12.937,0,0,1,3.323,4,12.938,12.938,0,0,1,3.323-4A9.094,9.094,0,0,1,28.208,30c5.817,0,10.2,4.758,10.2,11.067,0,6.816-5.472,11.479-13.756,18.538-1.408,1.2-3,2.558-4.66,4.008A1.2,1.2,0,0,1,19.206,63.91Z" transform="translate(0 -30)" fill="#ff5353"/>
</svg>
