<svg xmlns="http://www.w3.org/2000/svg" width="140.724" height="27.54" viewBox="0 0 140.724 27.54">
  <path id="Trazado_58" data-name="Trazado 58" d="M2.772.18A5.936,5.936,0,0,0,6.984-1.458,8.933,8.933,0,0,0,9.36-5.8l4.194-15.7a3.179,3.179,0,0,1,.468-.963,4.258,4.258,0,0,1,.756-.819,3.134,3.134,0,0,1,.963-.549,3.225,3.225,0,0,1,1.089-.189,2.8,2.8,0,0,1,.774.108.571.571,0,0,0,.162.036q.378,0,.576-.522l.522-1.944a1.072,1.072,0,0,0,.018-.234.461.461,0,0,0-.414-.486,6.732,6.732,0,0,0-1.368-.09,7.437,7.437,0,0,0-2.16.315,6.823,6.823,0,0,0-1.908.909,6.315,6.315,0,0,0-1.53,1.512,5.722,5.722,0,0,0-.9,1.98L6.1-5.526A3.507,3.507,0,0,1,4.86-3.762a3.219,3.219,0,0,1-2.034.756,3.287,3.287,0,0,1-.792-.108.546.546,0,0,0-.162-.018.562.562,0,0,0-.369.126.541.541,0,0,0-.189.342L.774-.7A.546.546,0,0,0,.756-.54a.6.6,0,0,0,.117.36.558.558,0,0,0,.315.216,3.9,3.9,0,0,0,.7.117Q2.25.18,2.772.18ZM32.616-27.09a13.626,13.626,0,0,0-3.636.486,13.91,13.91,0,0,0-3.312,1.386A13.381,13.381,0,0,0,22.9-23.076a14.374,14.374,0,0,0-2.169,2.808,13.265,13.265,0,0,0-1.4,3.3,13.767,13.767,0,0,0-.477,3.627A13.626,13.626,0,0,0,19.35-9.7a13.577,13.577,0,0,0,1.386,3.294,13.335,13.335,0,0,0,2.133,2.781A13.841,13.841,0,0,0,25.65-1.476a12.957,12.957,0,0,0,3.285,1.4A13.836,13.836,0,0,0,32.58.4,13.725,13.725,0,0,0,36.225-.09a13.872,13.872,0,0,0,3.321-1.386,14.3,14.3,0,0,0,2.8-2.151A13.222,13.222,0,0,0,44.5-6.39a13.577,13.577,0,0,0,1.386-3.294,13.559,13.559,0,0,0,.486-3.618,13.726,13.726,0,0,0-.486-3.645,13.77,13.77,0,0,0-1.4-3.339,13.873,13.873,0,0,0-4.932-4.932,13.266,13.266,0,0,0-3.3-1.4A13.767,13.767,0,0,0,32.616-27.09Zm-10.674,13.7a10.4,10.4,0,0,1,.819-4.1,10.857,10.857,0,0,1,2.3-3.429,10.646,10.646,0,0,1,3.411-2.3,10.443,10.443,0,0,1,4.113-.819,10.4,10.4,0,0,1,4.1.819,10.857,10.857,0,0,1,3.429,2.3A10.857,10.857,0,0,1,42.4-17.487a10.4,10.4,0,0,1,.819,4.1A10.443,10.443,0,0,1,42.4-9.279,10.646,10.646,0,0,1,40.1-5.868a10.711,10.711,0,0,1-3.429,2.313,10.4,10.4,0,0,1-4.1.819,10.443,10.443,0,0,1-4.113-.819,10.506,10.506,0,0,1-3.411-2.313,10.646,10.646,0,0,1-2.3-3.411A10.443,10.443,0,0,1,21.942-13.392ZM54.414-26.568q0-.036-.162-.108a1.443,1.443,0,0,0-.414-.054h-1.89a.554.554,0,0,0-.423.162.6.6,0,0,0-.153.432V-.594A.517.517,0,0,0,51.948,0H53.8q.648,0,.648-.594V-22.572L69.516-12.15V-.594A.517.517,0,0,0,70.092,0h1.854q.666,0,.666-.594V-26.136a.537.537,0,0,0-.2-.423.693.693,0,0,0-.468-.171H70.092a.554.554,0,0,0-.423.162.6.6,0,0,0-.153.432V-15.93ZM78.264-.594A.517.517,0,0,0,78.84,0h1.908q.63,0,.63-.594V-26.136a.553.553,0,0,0-.18-.432.648.648,0,0,0-.45-.162H78.84a.554.554,0,0,0-.423.162.6.6,0,0,0-.153.432Zm8.694.054q0,.54.63.54h8.55a13.382,13.382,0,0,0,6.8-1.818A13.5,13.5,0,0,0,105.669-3.9a13.228,13.228,0,0,0,2.115-2.709,13.186,13.186,0,0,0,1.818-6.732,13.791,13.791,0,0,0-.459-3.573,13.5,13.5,0,0,0-1.323-3.231,13.062,13.062,0,0,0-2.079-2.709,13.061,13.061,0,0,0-2.709-2.079,13.527,13.527,0,0,0-6.894-1.8h-8.55q-.63,0-.63.666Zm3.078-23.13h6.1a11.251,11.251,0,0,1,4.023.72,9.974,9.974,0,0,1,3.321,2.052,9.422,9.422,0,0,1,2.241,3.24,10.455,10.455,0,0,1,.8,4.122,10.488,10.488,0,0,1-.774,4.014,10.54,10.54,0,0,1-2.178,3.348,10.239,10.239,0,0,1-3.375,2.3,10.579,10.579,0,0,1-4.167.819H90.036Zm37.692-3.42a13.626,13.626,0,0,0-3.636.486,13.909,13.909,0,0,0-3.312,1.386,13.381,13.381,0,0,0-2.763,2.142,14.374,14.374,0,0,0-2.169,2.808,13.265,13.265,0,0,0-1.4,3.3,13.767,13.767,0,0,0-.477,3.627,13.626,13.626,0,0,0,.486,3.636,13.577,13.577,0,0,0,1.386,3.294,13.335,13.335,0,0,0,2.133,2.781,13.841,13.841,0,0,0,2.781,2.151,12.957,12.957,0,0,0,3.285,1.4A13.836,13.836,0,0,0,127.692.4a13.725,13.725,0,0,0,3.645-.486,13.872,13.872,0,0,0,3.321-1.386,14.3,14.3,0,0,0,2.8-2.151,13.222,13.222,0,0,0,2.151-2.763,13.578,13.578,0,0,0,1.386-3.294,13.559,13.559,0,0,0,.486-3.618,13.726,13.726,0,0,0-.486-3.645,13.771,13.771,0,0,0-1.4-3.339,13.873,13.873,0,0,0-4.932-4.932,13.266,13.266,0,0,0-3.3-1.4A13.767,13.767,0,0,0,127.728-27.09Zm-10.674,13.7a10.4,10.4,0,0,1,.819-4.1,10.857,10.857,0,0,1,2.3-3.429,10.646,10.646,0,0,1,3.411-2.3,10.443,10.443,0,0,1,4.113-.819,10.4,10.4,0,0,1,4.1.819,10.857,10.857,0,0,1,3.429,2.3,10.857,10.857,0,0,1,2.295,3.429,10.4,10.4,0,0,1,.819,4.1,10.443,10.443,0,0,1-.819,4.113,10.646,10.646,0,0,1-2.295,3.411,10.711,10.711,0,0,1-3.429,2.313,10.4,10.4,0,0,1-4.1.819,10.443,10.443,0,0,1-4.113-.819,10.506,10.506,0,0,1-3.411-2.313,10.646,10.646,0,0,1-2.3-3.411A10.443,10.443,0,0,1,117.054-13.392Z" transform="translate(-0.756 27.144)" fill="#fff"/>
</svg>
